<?xml version="1.0" encoding="UTF-8"?>
<svg id="Laag_1" data-name="Laag 1" xmlns="http://www.w3.org/2000/svg" viewBox="0 0 789.85 616.41">
  <path d="M105.13,616.41h579.58c69.98,0,105.13-34.82,105.13-103.79V103.79c0-68.97-35.16-103.79-105.13-103.79H105.13C35.49,0,0,34.49,0,103.79v408.82c0,69.31,35.49,103.79,105.13,103.79ZM106.14,562.5c-33.48,0-52.23-17.75-52.23-52.57V106.47c0-34.82,18.75-52.57,52.23-52.57h149v508.59H106.14ZM683.7,53.91c33.15,0,52.23,17.75,52.23,52.57v403.46c0,34.82-19.08,52.57-52.23,52.57h-376V53.91h376ZM190.85,178.12c10.04,0,19.08-9.04,19.08-18.75s-9.04-18.75-19.08-18.75h-71.99c-10.04,0-18.75,8.7-18.75,18.75s8.71,18.75,18.75,18.75h71.99ZM190.85,264.84c10.04,0,19.08-9.04,19.08-19.09s-9.04-18.42-19.08-18.42h-71.99c-10.04,0-18.75,8.37-18.75,18.42s8.71,19.09,18.75,19.09h71.99ZM190.85,351.23c10.04,0,19.08-8.37,19.08-18.42s-9.04-18.75-19.08-18.75h-71.99c-10.04,0-18.75,8.71-18.75,18.75s8.71,18.42,18.75,18.42h71.99Z"/>
</svg>
