<?xml version="1.0" encoding="UTF-8"?>
<svg id="Laag_1" xmlns="http://www.w3.org/2000/svg" version="1.1" viewBox="0 0 56.69 56.69">
  <!-- Generator: Adobe Illustrator 29.7.1, SVG Export Plug-In . SVG Version: 2.1.1 Build 8)  -->
  <defs>
    <style>
      .st0, .st1 {
        fill: #5466e8;
      }

      .st1 {
        opacity: .1;
      }
    </style>
  </defs>
  <rect class="st1" width="56.69" height="56.69"/>
  <path class="st0" d="M35.29,22.94h-13.89c-.43,0-.77-.35-.77-.77h0c0-.43.35-.77.77-.77h13.89c.43,0,.77.35.77.77h0c0,.43-.35.77-.77.77ZM32.2,26.03h-10.81c-.43,0-.77-.35-.77-.77h0c0-.43.35-.77.77-.77h10.81c.43,0,.77.35.77.77h0c0,.43-.35.77-.77.77ZM35.29,29.12h-13.89c-.43,0-.77-.35-.77-.77h0c0-.43.35-.77.77-.77h13.89c.43,0,.77.35.77.77h0c0,.43-.35.77-.77.77ZM35.29,35.29h-13.89c-.43,0-.77-.35-.77-.77h0c0-.43.35-.77.77-.77h13.89c.43,0,.77.35.77.77h0c0,.43-.35.77-.77.77ZM32.2,32.2h-10.81c-.43,0-.77-.35-.77-.77h0c0-.43.35-.77.77-.77h10.81c.43,0,.77.35.77.77h0c0,.43-.35.77-.77.77Z"/>
</svg>