<?xml version="1.0" encoding="UTF-8"?>
<svg id="Laag_1" xmlns="http://www.w3.org/2000/svg" version="1.1" viewBox="0 0 56.69 56.69">
  <!-- Generator: Adobe Illustrator 29.7.1, SVG Export Plug-In . SVG Version: 2.1.1 Build 8)  -->
  <defs>
    <style>
      .st0, .st1 {
        fill: #dbc558;
      }

      .st1 {
        opacity: .1;
      }
    </style>
  </defs>
  <rect class="st1" width="56.69" height="56.69"/>
  <path class="st0" d="M23.5,21.08h1.61c.56,0,1.12.15,1.6.44.49.28.89.69,1.17,1.18.29.49.7.9,1.19,1.18.49.28,1.05.43,1.62.44h2.48c.86,0,1.68.34,2.28.95.61.61.95,1.43.95,2.28v4.84c0,.86-.34,1.68-.95,2.28-.61.61-1.43.95-2.28.95h-9.68c-.86,0-1.68-.34-2.28-.95-.61-.61-.95-1.43-.95-2.28v-8.07c0-.86.34-1.68.95-2.28.61-.61,1.43-.95,2.28-.95Z"/>
</svg>