<?xml version="1.0" encoding="UTF-8"?>
<svg id="Laag_1" xmlns="http://www.w3.org/2000/svg" version="1.1" viewBox="0 0 56.69 56.69">
  <!-- Generator: Adobe Illustrator 29.7.1, SVG Export Plug-In . SVG Version: 2.1.1 Build 8)  -->
  <defs>
    <style>
      .st0, .st1 {
        fill: #236cc4;
      }

      .st1 {
        opacity: .2;
      }
    </style>
  </defs>
  <rect class="st1" width="56.69" height="56.69"/>
  <path class="st0" d="M31.16,16.06c-1.54-.18-3,.72-3.53,2.18-.12.33-.16.68-.18,1.06-.01.28-.02.62-.02,1.01v.55s0,.01,0,.02v9.8c-1.03-.97-2.42-1.56-3.95-1.56-3.19,0-5.77,2.58-5.77,5.77s2.58,5.77,5.77,5.77,5.77-2.58,5.77-5.77v-10.68c.13.07.27.14.42.21l3.29,1.65c.51.25.92.46,1.26.61.34.15.68.27,1.03.31,1.54.18,3-.72,3.53-2.18.12-.33.16-.68.18-1.06.02-.37.02-.83.02-1.4v-.1c0-.42,0-.75-.06-1.07-.15-.81-.6-1.53-1.25-2.03-.25-.19-.55-.34-.93-.53l-3.29-1.65c-.51-.25-.92-.46-1.26-.61-.34-.15-.68-.27-1.03-.31Z"/>
</svg>