<?xml version="1.0" encoding="UTF-8"?>
<svg id="Laag_1" xmlns="http://www.w3.org/2000/svg" version="1.1" viewBox="0 0 56.69 56.69">
  <!-- Generator: Adobe Illustrator 29.7.1, SVG Export Plug-In . SVG Version: 2.1.1 Build 8)  -->
  <defs>
    <style>
      .st0 {
        opacity: .1;
      }

      .st0, .st1 {
        fill: #58a1dd;
      }
    </style>
  </defs>
  <rect class="st0" width="56.69" height="56.69"/>
  <g>
    <path class="st1" d="M28.48,26.39c.06.94-.32,1.86-1.03,2.49-.83.62-1.85.93-2.89.86h-.91v3.58h-2.14v-10.11h3.22c.99-.07,1.98.21,2.79.8.68.59,1.04,1.48.96,2.38ZM23.66,28h.69c.51.03,1.01-.11,1.43-.4.34-.27.53-.69.49-1.13.04-.42-.11-.83-.41-1.12-.37-.27-.83-.4-1.28-.36h-.91v3.01Z"/>
    <path class="st1" d="M35.18,31.04c.04.7-.27,1.38-.82,1.81-.74.46-1.6.68-2.47.62-.48,0-.96-.03-1.44-.12-.38-.07-.76-.18-1.12-.33v-1.73c.41.19.84.34,1.28.46.42.11.85.17,1.28.18.76,0,1.14-.22,1.14-.65,0-.15-.05-.3-.15-.41-.15-.14-.32-.26-.51-.35l-1-.46c-.46-.18-.89-.41-1.28-.69-.26-.19-.46-.43-.6-.72-.14-.32-.2-.67-.19-1.01-.02-.63.28-1.23.8-1.59.68-.41,1.47-.61,2.26-.57.94,0,1.86.21,2.71.62l-.63,1.52c-.35-.16-.71-.29-1.08-.41-.33-.1-.68-.15-1.03-.15-.63,0-.94.17-.94.5.01.21.13.39.31.49.41.25.84.45,1.28.62.45.18.88.41,1.28.68.26.19.47.44.62.73.18.3.28.64.3.99Z"/>
  </g>
</svg>