<?xml version="1.0" encoding="UTF-8"?>
<svg id="Laag_1" xmlns="http://www.w3.org/2000/svg" version="1.1" viewBox="0 0 56.69 56.69">
  <!-- Generator: Adobe Illustrator 29.7.1, SVG Export Plug-In . SVG Version: 2.1.1 Build 8)  -->
  <defs>
    <style>
      .st0 {
        fill: #f4f3f4;
      }
    </style>
  </defs>
  <path class="st0" d="M26.59,15.62l-.46,1.91-.58,2.49c-.08.33-.11.66-.11,1,0,1.47.8,2.45,2.18,2.7v2.98h-2.11c-.43,0-.75.31-.75.71s.33.75.75.75h2.11v1.75h-2.11c-.43,0-.75.31-.75.71s.33.75.75.75h2.11v1.75h-2.11c-.43,0-.75.31-.75.71s.33.75.75.75h2.11v1.75h-2.11c-.4,0-.73.33-.73.73s.33.73.73.73h2.11v1.35h1.5v-2.97h2.11c.4,0,.73-.33.73-.73s-.33-.73-.73-.73h-2.11v-1.75h2.11c.43,0,.75-.32.75-.74s-.34-.73-.74-.72h-2.12v-1.75h2.11c.43,0,.75-.32.75-.74s-.34-.73-.74-.72h-2.12v-1.75h2.11c.43,0,.75-.32.75-.74s-.34-.73-.74-.72h-2.12v-1.37c1.38-.25,2.18-1.23,2.18-2.7,0-.34-.03-.67-.11-1l-.58-2.49h0l-.45-1.92h4.63c2.42,0,3.67,1.18,3.75,3.47v18.28c0,2.49-1.25,3.72-3.75,3.72h-12.86c-2.51,0-3.75-1.23-3.75-3.72v-18.02c0-2.48,1.25-3.73,3.75-3.73h4.68Z"/>
  <circle class="st0" cx="28.37" cy="20.88" r="1.29"/>
</svg>